<?xml version="1.0" encoding="utf-8"?>
<!-- Generator: Adobe Illustrator 19.2.1, SVG Export Plug-In . SVG Version: 6.00 Build 0)  -->
<svg version="1.1" id="layer" xmlns="http://www.w3.org/2000/svg" xmlns:xlink="http://www.w3.org/1999/xlink" x="0px" y="0px"
	 viewBox="0 0 652 652" style="enable-background:new 0 0 652 652;" xml:space="preserve">
<style type="text/css">
	.st0{fill:#62C3D4;}
	.st1{fill:#A099CB;}
	.st2{fill:#3E81AD;}
	.st3{fill:#FFFFFF;}
	.st4{fill:#21679F;}
</style>
<polygon class="st0" points="415.9,331.9 393.4,380.9 405.7,426 30.2,426 20.8,426 20.7,351.8 "/>
<g>
	<path class="st1" d="M177.8,448.8l12-53c0,0-12.3-43.3-12.5-44.2c-0.3-0.9,443.4,0.3,443.4,0.3v73.6L177.8,448.8z"/>
	<path class="st2" d="M177.2,351.5c0.3,0.9,12.5,44.2,12.5,44.2l-6.8,30.2h222.7l-12.3-45.1l13.6-29.5
		C293.4,351.2,177.1,351.1,177.2,351.5"/>
	<path class="st3" d="M42.1,372.8h6.7l5.9,16.3c0.7,2.1,1.4,4.3,2.1,6.5h0.2c0.7-2.2,1.4-4.4,2.1-6.5l5.8-16.3h6.7v33.3h-5.5v-15.2
		c0-3.1,0.5-7.5,0.8-10.6h-0.2l-2.7,7.8l-5.5,15h-3.5l-5.5-15l-2.7-7.8h-0.2c0.3,3.1,0.8,7.5,0.8,10.6v15.2h-5.4V372.8z"/>
	<path class="st3" d="M104.8,389.3c0-7.4-3.4-12-8.6-12c-5.2,0-8.6,4.5-8.6,12c0,7.5,3.4,12.3,8.6,12.3
		C101.4,401.6,104.8,396.8,104.8,389.3 M81.5,389.3c0-10.8,6-17.1,14.7-17.1c8.7,0,14.7,6.4,14.7,17.1c0,10.8-6,17.4-14.7,17.4
		C87.5,406.7,81.5,400.1,81.5,389.3"/>
	<path class="st3" d="M118.3,401.8l3.5-4c2.4,2.2,5.6,3.8,8.7,3.8c3.8,0,5.8-1.7,5.8-4.3c0-2.8-2.1-3.6-5.1-4.9l-4.6-2
		c-3.3-1.4-6.7-4-6.7-8.9c0-5.3,4.7-9.4,11.2-9.4c3.9,0,7.6,1.6,10.2,4.2l-3,3.8c-2.1-1.8-4.4-2.9-7.2-2.9c-3.2,0-5.3,1.5-5.3,3.9
		c0,2.6,2.5,3.6,5.3,4.7l4.5,1.9c3.9,1.7,6.7,4.2,6.7,9c0,5.4-4.5,9.9-12,9.9C125.9,406.7,121.5,404.9,118.3,401.8"/>
</g>
<polygon class="st3" points="157.2,377.7 147.5,377.7 147.5,372.8 172.7,372.8 172.7,377.7 163.1,377.7 163.1,406.1 157.2,406.1 "/>
<g>
	<path class="st3" d="M213.5,392.4h8.5l-1.2-4.1c-1.1-3.5-2-7.3-3-11h-0.2c-0.9,3.7-1.9,7.5-3,11L213.5,392.4z M214.4,372.8h6.9
		l10.9,33.3h-6.2l-2.6-9h-11.2l-2.6,9h-6L214.4,372.8z"/>
	<path class="st3" d="M237.1,389.5c0-10.9,6.8-17.4,15.2-17.4c4.2,0,7.5,2,9.6,4.2l-3.2,3.8c-1.7-1.7-3.7-2.9-6.3-2.9
		c-5.5,0-9.3,4.6-9.3,12.1c0,7.6,3.6,12.2,9.2,12.2c3,0,5.2-1.4,7.1-3.4l3.2,3.7c-2.7,3.1-6.2,4.8-10.5,4.8
		C243.7,406.7,237.1,400.6,237.1,389.5"/>
</g>
<polygon class="st3" points="277.2,377.7 267.6,377.7 267.6,372.8 292.8,372.8 292.8,377.7 283.1,377.7 283.1,406.1 277.2,406.1 "/>
<rect x="301.4" y="372.8" class="st3" width="5.9" height="33.3"/>
<g>
	<path class="st3" d="M314.4,372.8h6.3l4.7,16.8c1.1,3.8,1.8,7,3,10.9h0.2c1.1-3.8,1.9-7.1,2.9-10.9l4.6-16.8h6.1l-10.3,33.3h-7
		L314.4,372.8z"/>
</g>
<polygon class="st3" points="349.2,372.8 369.3,372.8 369.3,377.7 355.1,377.7 355.1,386.3 367.1,386.3 367.1,391.3 355.1,391.3 
	355.1,401.1 369.8,401.1 369.8,406.1 349.2,406.1 "/>
<g>
	<path class="st3" d="M404.5,389.5c0-10.9,6.8-17.4,15.2-17.4c4.2,0,7.5,2,9.6,4.2l-3.2,3.8c-1.7-1.7-3.7-2.9-6.3-2.9
		c-5.5,0-9.3,4.6-9.3,12.1c0,7.6,3.6,12.2,9.2,12.2c3,0,5.2-1.4,7.1-3.4l3.2,3.7c-2.7,3.1-6.2,4.8-10.5,4.8
		C411.1,406.7,404.5,400.6,404.5,389.5"/>
	<path class="st3" d="M458.5,389.3c0-7.4-3.4-12-8.6-12c-5.2,0-8.6,4.5-8.6,12c0,7.5,3.4,12.3,8.6,12.3
		C455.1,401.6,458.5,396.8,458.5,389.3 M435.2,389.3c0-10.8,6-17.1,14.7-17.1c8.7,0,14.7,6.4,14.7,17.1c0,10.8-6,17.4-14.7,17.4
		C441.2,406.7,435.2,400.1,435.2,389.3"/>
	<path class="st3" d="M474.2,391.5v-18.7h5.9v19.2c0,7.2,2.7,9.6,6.7,9.6c4.1,0,6.9-2.4,6.9-9.6v-19.2h5.7v18.7
		c0,11-4.8,15.2-12.6,15.2C479.2,406.7,474.2,402.4,474.2,391.5"/>
	<path class="st3" d="M510.8,372.8h6.1l10.4,18.8l3.4,7.1h0.2c-0.3-3.4-0.8-7.6-0.8-11.4v-14.5h5.7v33.3h-6.1l-10.4-18.8l-3.4-7.1
		h-0.2c0.3,3.5,0.8,7.5,0.8,11.3v14.6h-5.7V372.8z"/>
</g>
<polygon class="st3" points="554,377.7 544.4,377.7 544.4,372.8 569.6,372.8 569.6,377.7 560,377.7 560,406.1 554,406.1 "/>
<g>
	<path class="st3" d="M583,393.7l-10-21h6.3l3.6,8.5c1,2.5,1.9,4.8,3,7.3h0.2c1.1-2.5,2.1-4.8,3.1-7.3l3.6-8.5h6.2l-10,21v12.4H583
		V393.7z"/>
</g>
<polygon class="st4" points="155.9,258.6 182.9,258.6 182.9,265.3 163.8,265.3 163.8,276.8 180,276.8 180,283.5 163.8,283.5 
	163.8,296.7 183.6,296.7 183.6,303.5 155.9,303.5 "/>
<g>
	<path class="st4" d="M192.2,258.6h8.2l14,25.2l4.6,9.5h0.3c-0.3-4.6-1-10.3-1-15.3v-19.5h7.6v44.9h-8.2l-14-25.2l-4.6-9.5h-0.3
		c0.3,4.7,1,10.2,1,15.2v19.6h-7.6V258.6z"/>
	<path class="st4" d="M234.4,281.2c0-14.7,9.3-23.4,21.2-23.4c6.4,0,10.8,2.8,13.6,5.7l-4.3,5.1c-2.3-2.2-4.9-3.9-9.1-3.9
		c-8,0-13.3,6.2-13.3,16.3c0,10.2,4.7,16.4,13.7,16.4c2.5,0,5-0.7,6.5-2v-9.7h-8.5v-6.5h15.6v19.8c-3,3-8.2,5.3-14.3,5.3
		C243.3,304.3,234.4,296.1,234.4,281.2"/>
</g>
<polygon class="st4" points="279.2,258.6 287.2,258.6 287.2,296.7 305.8,296.7 305.8,303.5 279.2,303.5 "/>
<g>
	<path class="st4" d="M320.7,285.1h11.5l-1.6-5.5c-1.4-4.7-2.7-9.9-4-14.8h-0.3c-1.2,5-2.5,10.1-4,14.8L320.7,285.1z M321.9,258.6
		h9.3l14.6,44.9h-8.4l-3.5-12.1h-15.1l-3.5,12.1h-8.1L321.9,258.6z"/>
	<path class="st4" d="M350.8,258.6h8.2l14,25.2l4.6,9.5h0.3c-0.3-4.6-1-10.3-1-15.3v-19.5h7.6v44.9h-8.2l-14-25.2l-4.6-9.5h-0.3
		c0.3,4.7,1,10.2,1,15.2v19.6h-7.6V258.6z"/>
	<path class="st4" d="M406.8,297c9.1,0,14.2-5.1,14.2-16.2c0-11-5.1-15.8-14.2-15.8h-3.5v32H406.8z M395.3,258.6h12
		c13.7,0,21.8,7.4,21.8,22.2c0,14.9-8.1,22.6-21.4,22.6h-12.4V258.6z"/>
	<path class="st4" d="M436.5,273.1c3.8-2.2,5.7-4.7,5.7-8.6c-0.2,0.1-0.4,0.1-0.6,0.1c-2.4,0-4.5-1.6-4.5-4.3c0-2.9,1.9-4.7,4.5-4.7
		c3.5,0,5.4,2.8,5.4,7.6c0,6-2.9,10.5-8.6,13.5L436.5,273.1z"/>
	<path class="st4" d="M452.9,297.7l4.7-5.4c3.2,3,7.5,5.1,11.7,5.1c5.1,0,7.8-2.3,7.8-5.8c0-3.7-2.9-4.9-6.9-6.6l-6.2-2.7
		c-4.4-1.9-9.1-5.4-9.1-11.9c0-7.1,6.3-12.6,15.1-12.6c5.2,0,10.3,2.2,13.8,5.7l-4,5.1c-2.9-2.4-5.9-3.8-9.7-3.8
		c-4.3,0-7.1,2-7.1,5.3c0,3.5,3.4,4.8,7.1,6.3l6.1,2.5c5.3,2.3,9.1,5.6,9.1,12.1c0,7.3-6,13.3-16.1,13.3
		C463,304.3,457.1,301.9,452.9,297.7"/>
</g>
<polygon class="st4" points="107.2,197.5 114,197.5 114,209 124.3,209 124.3,197.5 131.1,197.5 131.1,227.5 124.3,227.5 124.3,215 
	114,215 114,227.5 107.2,227.5 "/>
<g>
	<path class="st4" d="M151.1,213.6c0-2.5-1.1-4.3-3.8-4.3c-2.1,0-4,1.4-4.4,4.3H151.1z M136.3,216.1c0-7.4,5.3-12,10.8-12
		c6.5,0,9.7,4.7,9.7,11c0,1.2-0.1,2.4-0.3,3h-13.7c0.6,3.3,2.9,4.8,5.9,4.8c1.7,0,3.3-0.5,4.9-1.5l2.3,4.1c-2.3,1.6-5.4,2.6-8.1,2.6
		C141.4,228.1,136.3,223.6,136.3,216.1"/>
	<path class="st4" d="M161.5,220.4v-25.2h6.8v25.5c0,1.4,0.6,1.9,1.2,1.9c0.3,0,0.5,0,0.8-0.1l0.8,5c-0.7,0.3-1.9,0.6-3.4,0.6
		C163.1,228.1,161.5,225,161.5,220.4"/>
	<path class="st4" d="M189.4,215.8c0-4.1-1.2-6.2-4-6.2c-1.4,0-2.6,0.6-3.9,2.1v9.4c1.2,1.1,2.5,1.5,3.6,1.5
		C187.5,222.5,189.4,220.5,189.4,215.8 M174.7,204.6h5.5l0.5,2.3h0.2c1.8-1.6,4.1-2.8,6.5-2.8c5.5,0,8.9,4.6,8.9,11.6
		c0,7.8-4.7,12.4-9.6,12.4c-2,0-3.8-0.9-5.4-2.4l0.2,3.6v6.7h-6.8V204.6z"/>
	<path class="st4" d="M201.1,204.6h6.8v22.9h-6.8V204.6z M200.6,197.7c0-2.1,1.7-3.5,3.9-3.5c2.3,0,3.9,1.4,3.9,3.5
		c0,2.1-1.6,3.5-3.9,3.5C202.2,201.3,200.6,199.8,200.6,197.7"/>
	<path class="st4" d="M213.8,204.6h5.5l0.5,2.9h0.2c1.9-1.8,4.2-3.5,7.3-3.5c5,0,7.1,3.5,7.1,9.2v14.2h-6.8v-13.3
		c0-3.3-0.9-4.3-2.8-4.3c-1.7,0-2.8,0.8-4.2,2.2v15.4h-6.8V204.6z"/>
	<path class="st4" d="M252,212.3c0-2.4-1.3-3.7-3.1-3.7c-1.8,0-3.1,1.2-3.1,3.7c0,2.5,1.3,3.8,3.1,3.8
		C250.7,216.2,252,214.9,252,212.3 M254.7,230.2c0-1.4-1.2-1.8-3.5-1.8h-2.3c-1.6,0-2.5-0.1-3.2-0.3c-0.8,0.7-1.2,1.4-1.2,2.3
		c0,1.7,2,2.6,5.1,2.6C252.5,233,254.7,231.7,254.7,230.2 M238.8,231.4c0-1.9,1.2-3.4,3.3-4.6v-0.2c-1.2-0.8-2.1-2-2.1-3.9
		c0-1.7,1.1-3.3,2.6-4.3v-0.2c-1.6-1.1-3.1-3.3-3.1-5.9c0-5.5,4.5-8.3,9.4-8.3c1.3,0,2.5,0.2,3.5,0.6h8.3v4.9h-3.6
		c0.4,0.7,0.7,1.8,0.7,3c0,5.3-4,7.7-9,7.7c-0.8,0-1.8-0.1-2.8-0.5c-0.6,0.5-0.8,0.9-0.8,1.7c0,1.2,0.9,1.7,3.5,1.7h3.7
		c5.6,0,8.7,1.7,8.7,5.8c0,4.7-4.9,8.2-12.8,8.2C243,237.2,238.8,235.5,238.8,231.4"/>
	<path class="st4" d="M274,204.6h5.5l0.5,3h0.2c1.9-1.9,3.9-3.5,6.9-3.5c3.2,0,5.2,1.4,6.3,3.8c2-2.1,4.1-3.8,7.2-3.8
		c4.9,0,7.1,3.5,7.1,9.2v14.2H301v-13.3c0-3.3-0.9-4.3-2.8-4.3c-1.2,0-2.4,0.7-3.9,2.2v15.4h-6.8v-13.3c0-3.3-0.9-4.3-2.8-4.3
		c-1.1,0-2.4,0.7-3.9,2.2v15.4H274V204.6z"/>
	<path class="st4" d="M325.3,220.9v-4c-4.8,0.6-6.4,2-6.4,3.8c0,1.5,1,2.2,2.6,2.2C323.1,222.8,324.1,222.1,325.3,220.9
		 M312.4,221.1c0-4.8,3.8-7.4,12.9-8.3c-0.1-2-1.1-3.3-3.6-3.3c-1.9,0-3.8,0.8-6,2.1l-2.4-4.5c2.9-1.8,6.2-3,9.8-3
		c5.9,0,9.1,3.3,9.1,10.3v13.1h-5.5l-0.5-2.3h-0.2c-1.9,1.7-4.1,2.9-6.6,2.9C315.1,228.1,312.4,225,312.4,221.1"/>
</g>
<polygon class="st4" points="337.8,195.2 344.4,195.2 344.4,213.7 344.6,213.7 351.8,204.6 359.2,204.6 351.1,214.1 359.8,227.5 
	352.4,227.5 347.3,218.6 344.4,221.9 344.4,227.5 337.8,227.5 "/>
<g>
	<path class="st4" d="M375.2,213.6c0-2.5-1.1-4.3-3.8-4.3c-2.1,0-4,1.4-4.4,4.3H375.2z M360.4,216.1c0-7.4,5.3-12,10.8-12
		c6.5,0,9.7,4.7,9.7,11c0,1.2-0.1,2.4-0.3,3H367c0.6,3.3,2.9,4.8,5.9,4.8c1.7,0,3.3-0.5,4.9-1.5l2.3,4.1c-2.3,1.6-5.4,2.6-8.1,2.6
		C365.4,228.1,360.4,223.6,360.4,216.1"/>
	<path class="st4" d="M393.4,223.7l3.9-4.7c2.2,1.8,4.9,3.1,7.4,3.1c2.8,0,4.2-1.1,4.2-2.9c0-1.9-1.7-2.5-4.3-3.6l-3.9-1.7
		c-3.1-1.2-6-3.8-6-8.2c0-5,4.4-8.9,10.7-8.9c3.5,0,7.1,1.4,9.7,4l-3.5,4.3c-2-1.5-3.8-2.4-6.2-2.4c-2.3,0-3.8,1-3.8,2.7
		c0,1.8,2,2.5,4.6,3.5l3.9,1.6c3.6,1.5,5.9,3.9,5.9,8.2c0,5-4.1,9.3-11.3,9.3C400.6,228.1,396.5,226.6,393.4,223.7"/>
	<path class="st4" d="M420.2,218.8v-14.2h6.8V218c0,3.3,0.9,4.3,2.9,4.3c1.7,0,2.7-0.7,4.1-2.5v-15.1h6.8v22.9h-5.5l-0.5-3.2h-0.1
		c-1.9,2.3-4.1,3.7-7.2,3.7C422.3,228.1,420.2,224.6,420.2,218.8"/>
	<path class="st4" d="M462.3,209.9h-7.8v17.6h-6.8v-17.6h-3v-5l3-0.2v-1.1c0-4.7,2.4-8.5,8.7-8.5c1.9,0,3.7,0.4,4.7,0.8l-1.2,5
		c-0.7-0.3-1.4-0.5-2.7-0.5c-1.6,0-2.7,1-2.7,3.1v1.1h7.8v-1.2c0-4.8,2.3-8.8,8.4-8.8c1.9,0,3.5,0.5,4.6,0.8l-1.2,5
		c-0.8-0.3-1.6-0.5-2.4-0.5c-1.7,0-2.6,0.9-2.6,3.3v1.4h4.1v5.3h-4.1v17.6h-6.8V209.9z"/>
	<path class="st4" d="M490.4,216.1c0-4-1.4-6.5-4.2-6.5c-2.8,0-4.2,2.5-4.2,6.5c0,4,1.4,6.5,4.2,6.5
		C489,222.6,490.4,220,490.4,216.1 M475.1,216.1c0-7.6,5.3-12,11.2-12c5.8,0,11.1,4.4,11.1,12c0,7.6-5.3,12-11.1,12
		C480.4,228.1,475.1,223.7,475.1,216.1"/>
	<path class="st4" d="M502,220.4v-25.2h6.8v25.5c0,1.4,0.6,1.9,1.2,1.9c0.3,0,0.5,0,0.8-0.1l0.8,5c-0.7,0.3-1.9,0.6-3.4,0.6
		C503.6,228.1,502,225,502,220.4"/>
</g>
<polygon class="st4" points="515.2,195.2 521.8,195.2 521.8,213.7 521.9,213.7 529.2,204.6 536.6,204.6 528.5,214.1 537.2,227.5 
	529.8,227.5 524.7,218.6 521.8,221.9 521.8,227.5 515.2,227.5 "/>
</svg>
