<?xml version="1.0" encoding="utf-8"?>
<!-- Generator: Adobe Illustrator 19.2.1, SVG Export Plug-In . SVG Version: 6.00 Build 0)  -->
<svg version="1.1" id="layer" xmlns="http://www.w3.org/2000/svg" xmlns:xlink="http://www.w3.org/1999/xlink" x="0px" y="0px"
	 viewBox="0 0 652 652" style="enable-background:new 0 0 652 652;" xml:space="preserve">
<style type="text/css">
	.st0{fill:#231F20;}
	.st1{fill:#ED1C24;}
</style>
<g id="Layer_2">
	<g id="Layer_1-2">
		<path class="st0" d="M265,301.3v-0.2c0.1-2.1-0.3-4.1-1.1-6c-0.8-1.7-1.9-3.2-3.3-4.4c-1.6-1.3-3.4-2.4-5.4-3.2
			c-2.4-1-4.8-1.8-7.3-2.4c-2.3-0.6-4.2-1.2-5.7-1.6c-1.2-0.3-2.4-0.8-3.6-1.4c-0.7-0.4-1.4-1-1.8-1.7c-0.3-0.7-0.5-1.5-0.5-2.3V278
			c0-1.3,0.6-2.6,1.7-3.3c1.1-0.9,2.9-1.3,5.2-1.3c2.4,0,4.7,0.5,6.9,1.4c2.5,1,4.8,2.3,7,3.9l6.1-8.9c-2.7-2.2-5.8-3.9-9.1-5.1
			c-3.5-1.2-7.1-1.8-10.8-1.8c-2.6,0-5.1,0.4-7.6,1.2c-2.2,0.7-4.2,1.8-5.9,3.3c-1.6,1.4-2.9,3.1-3.8,5.1c-0.9,2.1-1.4,4.3-1.4,6.6
			v0.2c-0.1,2.3,0.4,4.6,1.3,6.7c0.8,1.8,2,3.3,3.6,4.5c1.7,1.3,3.6,2.3,5.6,3c2.4,0.9,4.9,1.6,7.4,2.2c2.2,0.6,4.1,1.1,5.5,1.6
			c1.2,0.4,2.3,0.9,3.3,1.5c0.7,0.4,1.2,1,1.6,1.6c0.3,0.6,0.4,1.3,0.4,2v0.2c0,1.5-0.7,2.9-2,3.7c-1.4,0.9-3.3,1.3-5.7,1.3
			c-2.9,0-5.8-0.6-8.5-1.8c-2.7-1.3-5.2-2.9-7.5-4.8l-7,8.3c3.1,2.8,6.8,5,10.7,6.5c3.9,1.4,7.9,2.1,12,2.1c2.7,0,5.4-0.3,8-1.1
			c2.2-0.7,4.3-1.8,6.2-3.2c1.7-1.4,3.1-3.2,4-5.2C264.5,306.2,265,303.8,265,301.3L265,301.3z M327.4,290.4v-0.2
			c0-3.7-0.7-7.4-2.1-10.8c-1.4-3.3-3.4-6.2-5.9-8.7c-2.6-2.5-5.6-4.5-9-5.9c-7.3-2.9-15.5-2.9-22.9,0c-6.8,2.7-12.2,8.1-15,14.8
			c-1.4,3.4-2.2,7.1-2.2,10.7v0.2c0,3.7,0.7,7.4,2.1,10.8c1.4,3.3,3.4,6.2,5.9,8.7c2.6,2.5,5.6,4.5,9,5.9c3.6,1.5,7.5,2.2,11.4,2.2
			c3.9,0,7.8-0.7,11.5-2.2c6.8-2.7,12.1-8.1,15-14.8C326.7,297.7,327.4,294.1,327.4,290.4L327.4,290.4z M315,290.6
			c0,2.2-0.4,4.4-1.2,6.5c-0.8,2-1.9,3.8-3.3,5.3c-1.4,1.5-3.2,2.8-5.1,3.6c-2.1,0.9-4.3,1.3-6.5,1.3c-2.3,0-4.5-0.4-6.5-1.3
			c-3.9-1.8-7-5-8.5-9c-0.8-2.1-1.2-4.3-1.2-6.5v-0.2c0-2.2,0.4-4.4,1.2-6.5c0.8-2,1.9-3.8,3.3-5.3c1.4-1.5,3.1-2.8,5.1-3.6
			c2.1-0.9,4.3-1.3,6.5-1.3c2.2,0,4.5,0.4,6.5,1.3c3.9,1.7,7,5,8.5,9c0.8,2.1,1.2,4.3,1.2,6.5L315,290.6L315,290.6z M381.2,293.8
			v-30.3h-11.8v30.7c0,4.3-1,7.5-3.1,9.7s-4.9,3.2-8.5,3.2c-3.6,0-6.5-1.1-8.5-3.3c-2-2.2-3.1-5.5-3.1-9.9v-30.3h-11.8v30.6
			c0,7.9,2.1,13.9,6.2,17.8s9.8,6,17,6c3.3,0,6.6-0.5,9.7-1.5c2.8-0.9,5.3-2.5,7.4-4.5c2.1-2.1,3.7-4.7,4.7-7.5
			C380.8,301.1,381.3,297.5,381.2,293.8L381.2,293.8z M435.9,317.2l-13.1-19.1c3.3-1.2,6.2-3.3,8.3-6c2.1-2.7,3.2-6.3,3.2-10.6v-0.2
			c0-5.6-1.8-9.9-5.3-13c-3.5-3.1-8.5-4.7-14.9-4.7h-24.5v53.6h11.8V300h9.3l11.5,17.2H435.9z M422.4,282c0.1,2.1-0.8,4.1-2.3,5.5
			c-1.6,1.4-3.8,2.1-6.7,2.1h-11.9v-15.4h11.7c2.9,0,5.2,0.6,6.8,1.9c1.6,1.3,2.4,3.2,2.4,5.7L422.4,282L422.4,282z M489.6,308.5
			l-7.5-7.6c-1.9,1.8-4,3.3-6.3,4.6c-2.1,1.1-4.7,1.7-7.8,1.7c-4.3,0.1-8.4-1.8-11.2-5c-1.4-1.6-2.5-3.4-3.2-5.4
			c-0.8-2.1-1.2-4.3-1.2-6.5v-0.2c0-2.2,0.4-4.4,1.2-6.5c0.7-2,1.8-3.8,3.2-5.3c1.4-1.5,3.1-2.8,4.9-3.6c2-0.9,4.1-1.3,6.2-1.3
			c2.5,0,5,0.5,7.3,1.6c2.3,1.2,4.5,2.7,6.4,4.4l7.5-8.7c-1.2-1.2-2.6-2.4-4-3.4c-1.5-1-3-1.9-4.7-2.6c-1.8-0.8-3.7-1.3-5.6-1.7
			c-2.3-0.4-4.6-0.6-6.9-0.6c-3.9,0-7.7,0.7-11.3,2.2c-3.3,1.4-6.3,3.4-8.8,6c-2.5,2.5-4.4,5.5-5.7,8.8c-1.4,3.4-2.1,7.1-2.1,10.8
			v0.2c0,3.7,0.7,7.4,2.1,10.8c2.6,6.6,7.9,11.9,14.5,14.6c3.5,1.5,7.2,2.2,11,2.1c2.4,0,4.7-0.2,7-0.7c2-0.4,3.9-1,5.8-1.9
			c1.7-0.8,3.4-1.8,4.9-3C486.8,311.3,488.3,310,489.6,308.5L489.6,308.5z M508.8,317.2v-53.6H497v53.6H508.8z M567.4,317.2v-53.6
			h-11.6v33l-25.1-33h-10.9v53.6h11.6v-34.1l26,34.1H567.4z M626.4,309.6v-23.3h-23.3v10.2H615v7.7c-3,2.2-6.7,3.2-11.1,3.2
			c-2.2,0-4.5-0.4-6.5-1.3c-1.9-0.8-3.7-2-5.1-3.6c-1.5-1.6-2.6-3.4-3.4-5.4c-0.8-2.2-1.2-4.5-1.2-6.8v-0.2c0-2.2,0.4-4.4,1.2-6.5
			c0.7-2,1.9-3.8,3.3-5.3c1.4-1.5,3.1-2.7,4.9-3.6c1.9-0.9,3.9-1.4,6-1.3c1.4,0,2.8,0.1,4.2,0.4c1.2,0.2,2.4,0.6,3.6,1.1
			c1.1,0.5,2.2,1,3.2,1.7c1.1,0.7,2.1,1.5,3.1,2.3l7.4-9c-1.4-1.2-2.8-2.2-4.3-3.1c-1.5-0.9-3.1-1.7-4.8-2.3
			c-1.8-0.6-3.6-1.1-5.5-1.4c-2.2-0.3-4.4-0.5-6.5-0.5c-3.9,0-7.7,0.7-11.3,2.2c-10.3,4.3-16.9,14.4-16.9,25.5v0.2
			c0,3.8,0.7,7.5,2.1,11c1.3,3.3,3.3,6.2,5.8,8.7c2.5,2.5,5.6,4.4,8.9,5.7c3.7,1.4,7.5,2.1,11.5,2.1c4.9,0,9.3-0.8,13.1-2.5
			C620.2,314.1,623.5,312.1,626.4,309.6L626.4,309.6z M259.7,367.9v-35.1h-12.1v34.5c0,3.1-0.6,5.4-1.9,6.8c-1.3,1.4-3,2.1-5.3,2.1
			c-1.8,0-3.6-0.5-5.2-1.4c-1.7-1.1-3.3-2.4-4.6-3.9l-7.4,8.3c2,2.3,4.3,4.2,7,5.7c2.8,1.6,6.3,2.4,10.5,2.4c2.6,0,5.2-0.4,7.7-1.2
			c2.2-0.7,4.3-2,6-3.6c1.7-1.7,3-3.7,3.9-6C259.3,373.6,259.7,370.7,259.7,367.9L259.7,367.9z M325,359.6v-0.2
			c0-3.7-0.7-7.3-2.1-10.8c-1.4-3.3-3.4-6.2-5.9-8.7c-2.6-2.5-5.6-4.5-9-5.9c-3.6-1.5-7.5-2.2-11.4-2.2c-3.9,0-7.8,0.7-11.5,2.2
			c-6.8,2.7-12.1,8.1-15,14.8c-1.4,3.4-2.2,7.1-2.2,10.7v0.2c0,3.7,0.7,7.4,2.1,10.8c1.4,3.3,3.4,6.2,5.9,8.7c2.6,2.5,5.7,4.5,9,5.9
			c7.3,2.9,15.5,2.9,22.9,0c6.8-2.7,12.2-8.1,15-14.8C324.3,366.9,325,363.3,325,359.6L325,359.6z M312.7,359.7
			c0,2.2-0.4,4.4-1.2,6.5c-0.8,2-1.9,3.8-3.3,5.3c-1.4,1.5-3.2,2.8-5.1,3.6c-2.1,0.9-4.3,1.3-6.5,1.3c-2.3,0-4.5-0.4-6.5-1.3
			c-3.9-1.8-7-5-8.5-9c-0.8-2.1-1.2-4.3-1.2-6.5v-0.2c0-2.2,0.4-4.4,1.2-6.5c0.8-2,1.9-3.8,3.3-5.3c1.4-1.5,3.1-2.8,5.1-3.6
			c2.1-0.9,4.3-1.3,6.5-1.3c2.2,0,4.5,0.4,6.5,1.3c3.9,1.7,7,5,8.5,9c0.8,2.1,1.2,4.3,1.2,6.5V359.7L312.7,359.7z M380,363v-30.3
			h-11.8v30.7c0,4.3-1,7.5-3.1,9.6c-2,2.1-4.9,3.2-8.5,3.2c-3.6,0-6.5-1.1-8.5-3.3c-2-2.2-3.1-5.5-3.1-9.9v-30.3h-11.8v30.6
			c0,7.9,2.1,13.9,6.2,17.8c4.1,4,9.8,6,17,6c3.3,0,6.6-0.5,9.7-1.5c2.8-0.9,5.3-2.5,7.4-4.5c2.1-2.1,3.7-4.7,4.7-7.5
			C379.5,370.2,380.1,366.6,380,363L380,363z M435.9,386.4l-13.1-19.1c3.3-1.2,6.2-3.3,8.3-6c2.1-2.7,3.2-6.3,3.2-10.6v-0.2
			c0-5.6-1.8-9.9-5.3-13c-3.5-3.1-8.5-4.7-14.9-4.7h-24.5v53.6h11.8v-17.2h9.3l11.5,17.2L435.9,386.4z M422.3,351.2
			c0.1,2.1-0.8,4.1-2.3,5.5c-1.6,1.4-3.8,2.1-6.7,2.1h-11.9v-15.4h11.7c2.9,0,5.2,0.6,6.8,1.9s2.5,3.2,2.5,5.7L422.3,351.2
			L422.3,351.2z M491.2,386.4v-53.6h-11.6v33l-25.1-33h-10.9v53.6h11.6v-34.1l26,34.1L491.2,386.4z M553.8,386.4l-23-54H520l-23,54
			h12c7.7-19,8.2-20.2,16.2-39.8c8.1,19.9,8.3,20.5,16.2,39.8L553.8,386.4z M598.1,386.4v-10.6h-26.7v-43h-11.8v53.6H598.1z"/>
		<path class="st1" d="M158.8,296.2l-17.1,9.9l-15.2,8.8l-17.8,10.3L91,314.8l-10.8-6.2l-21.5-12.4L48,290l60.8-35.1l39.3,22.7
			l11.4-6.6l10.1-5.9L108.8,230l-82.3,47.5v24.8L48,314.8l10.8,6.2l21.5,12.4l28.5,16.5l50-28.9V296.2L158.8,296.2z M48,360.2v-20.5
			l-8.1-4.7l-13.4-7.7v45.4L48,385l10.8,6.2l28.5,16.5l21.5,12.4l21.5-12.4l28.5-16.5l10.8-6.2l21.5-12.4v-95l-17.7,10.2l-3.8,2.2
			v70.2l-10.8,6.2l-50,28.9l-28.5-16.5l-21.5-12.4L48,360.2L48,360.2z"/>
	</g>
</g>
</svg>
