<?xml version="1.0" encoding="utf-8"?>
<!-- Generator: Adobe Illustrator 19.2.1, SVG Export Plug-In . SVG Version: 6.00 Build 0)  -->
<svg version="1.1" id="layer" xmlns="http://www.w3.org/2000/svg" xmlns:xlink="http://www.w3.org/1999/xlink" x="0px" y="0px"
	 viewBox="0 0 652 652" style="enable-background:new 0 0 652 652;" xml:space="preserve">
<style type="text/css">
	.st0{fill:#2F5D9E;}
</style>
<path class="st0" d="M69.7,288.1c0-30.7,20-56.8,47.6-66c-40.8,6.6-75.6,31.5-95.5,66c20,34.5,54.7,59.3,95.5,66
	C89.7,344.9,69.7,318.9,69.7,288.1"/>
<path class="st0" d="M161,222.2c27.7,9.2,47.6,35.2,47.6,66c0,30.7-20,56.8-47.6,66c40.8-6.6,75.6-31.5,95.5-66
	C236.6,253.6,201.9,228.8,161,222.2"/>
<rect x="107.5" y="285.6" class="st0" width="17.4" height="5.1"/>
<rect x="153.6" y="285.6" class="st0" width="17.4" height="5.1"/>
<rect x="136.6" y="302.5" class="st0" width="5.1" height="17.4"/>
<rect x="136.6" y="256.4" class="st0" width="5.1" height="17.4"/>
<path class="st0" d="M136.4,285.4c-1.5,1.5-1.5,4,0,5.5c1.5,1.5,4,1.5,5.5,0c1.5-1.5,1.5-4,0-5.5C140.4,283.9,138,283.9,136.4,285.4
	"/>
<rect x="291" y="231.3" class="st0" width="35.4" height="113.6"/>
<path class="st0" d="M413.7,344.9v-42.3h-36.5v42.3h-35.1V231.3h79.7c18.4,0,26.8,7.1,26.8,23.1v14.4c0,10.3-3.2,15.2-13.4,18.7
	c11.1,4.1,13.4,8.7,13.4,18.9v38.5 M413.5,262h-36.3v14.7h36.3V262z"/>
<rect x="463.9" y="231.3" class="st0" width="35.4" height="113.6"/>
<path class="st0" d="M621.8,324.5c0,12.6-9,20.4-24.9,20.4h-83v-31h73.4v-12.3h-39.2c-22.2,0-33.4-2.3-33.4-20.7v-27.2
	c0-16.7,10.9-22.3,33.4-22.3h66.7v30.7h-65.5v12.6h47.1c17.5,0,25.4,6.8,25.4,22"/>
<path class="st0" d="M378,399.2c-4.9,0-6.7-4-6.7-6.8c0-4.8,4-6.6,6.7-6.6h15.4v4.2H378c-0.9,0-2.5,0.4-2.5,2.4v0
	c0,0.9,0.4,2.6,2.5,2.6h9.2c4.9,0,6.7,3.9,6.7,6.7v0c0,4.9-4,6.7-6.7,6.7h-15.4v-4.2h15.4c0.9,0,2.5-0.4,2.5-2.5
	c0-0.9-0.4-2.5-2.5-2.5"/>
<path class="st0" d="M413,385.8c4.9,0,6.7,4,6.7,6.7v15.9h-4.2v-6.8h-14.2v6.8h-4.2v-15.9c0-5,4-6.7,6.7-6.7 M415.5,397.7v-5.2
	c0-1-0.4-2.6-2.5-2.6h-9.2c-0.9,0-2.5,0.4-2.5,2.5v5.2H415.5z"/>
<polyline class="st0" points="443.3,390 434.1,390 434.1,408.4 429.9,408.4 429.9,390 420.7,390 420.7,385.8 443.3,385.8 "/>
<path class="st0" d="M483.1,392.5v15.9h-4.2v-15.9c0-2.2-1.6-2.6-2.5-2.6H475c-2.1,0-2.4,1.6-2.4,2.6v15.9h-4.2v-15.9
	c0-2.2-1.7-2.6-2.6-2.6h-1.4c-2.1,0-2.4,1.6-2.4,2.6v15.9h-4.2v-15.9c0-2.8,1.7-6.8,6.6-6.8h1.4c1.4,0,3.2,0.7,4.6,2
	c1-1,2.5-2,4.6-2h1.4C479.2,385.8,483.1,387.5,483.1,392.5"/>
<path class="st0" d="M504.1,385.8c5,0,6.7,4,6.7,6.7v15.9h-4.2v-6.8h-14.2v6.8h-4.2v-15.9c0-5,4-6.7,6.7-6.7 M506.6,397.7v-5.2
	c0-1-0.4-2.6-2.5-2.6h-9.2c-0.9,0-2.5,0.4-2.5,2.5v5.2H506.6z"/>
<path class="st0" d="M531.7,385.8c4.9,0,6.8,3.9,6.8,6.6v1.1c0,1.5-0.6,3.6-2.1,4.5c1.7,1.1,2.1,3,2.1,4.5v5.9h-4.2v-5.9
	c0-0.9-0.6-2.4-2.7-2.4H523V396h8.7c2.2,0,2.6-1.5,2.6-2.4v-1c0-0.9-0.4-2.5-2.6-2.5h-11.7v18.4h-4.2v-22.6"/>
<rect x="543.4" y="385.8" class="st0" width="4.2" height="22.6"/>
<polyline class="st0" points="572.5,390 563.3,390 563.3,408.4 559.1,408.4 559.1,390 549.8,390 549.8,385.8 572.5,385.8 "/>
<path class="st0" d="M580.4,390c-1.3,0-2.2,1-2.2,2.2v2.8h18.1v4.2h-18.1v2.9c0,1.2,0.9,2.1,2.2,2.1h16.2v4.2h-16
	c-3.6,0-6.6-2.9-6.6-6.5v-9.6c0-3.5,3-6.6,6.6-6.6h16v4.2"/>
<path class="st0" d="M621.8,404.2v4.2h-14.3c-4.9,0-6.7-4-6.7-6.7v-15.9h4.2v15.9c0,0.9,0.3,2.5,2.5,2.5"/>
<rect x="437.3" y="408.4" class="st0" width="18.9" height="4.2"/>
<path class="st0" d="M329.2,372.5c-22,0-39.8,11.2-39.8,24.9c0,13.8,17.8,24.9,39.8,24.9c22,0,39.8-11.2,39.8-24.9
	C369.1,383.7,351.2,372.5,329.2,372.5 M329.2,419.3c-22.7,0-38.5-9.3-38.5-21.9c0-13.1,16.3-21.9,38.5-21.9
	c22.7,0,38.5,9.3,38.5,21.9C367.7,410.5,351.5,419.3,329.2,419.3"/>
<path class="st0" d="M337.7,385.8h-14.3c-1.8,0-2,0.9-2,1.6v3.5h6.3v17.5h5.6v-17.5h6.4v-3.5C339.7,386.7,339.6,385.8,337.7,385.8"
	/>
<path class="st0" d="M303.3,397.1c0,3.5,2.6,6.2,6.1,6.2c3.4,0,6-2.7,6-6.2c0-3.5-2.6-6.2-6-6.2
	C305.9,390.9,303.3,393.6,303.3,397.1 M297.6,397.1c0-6.5,5.2-11.8,11.7-11.8c6.5,0,11.8,5.2,11.8,11.8c0,6.5-5.2,11.7-11.7,11.7
	C302.8,408.8,297.6,403.6,297.6,397.1"/>
<path class="st0" d="M351.6,408.8c4.2-0.1,6.7-1.9,7.9-3.2c0.2-0.2-0.8-2.6-1.9-3.8c-0.9-0.9-2-0.3-2.5,0.1
	c-0.9,0.6-1.8,1.3-3.7,1.3c-2.4,0-4.4-1.5-5.4-3.5h6.6v-5.2h-6.6c1-2.1,3.1-3.5,5.4-3.5c1.5,0,2.6,0.5,3.4,1c0.5,0.3,1.6,1,2.4,0.1
	c1.1-1.2,2.1-3.6,1.9-3.8c-1.6-1.4-3.5-2.8-7.7-2.9c-6.4-0.2-11.8,5.1-11.8,11.8C339.8,403.9,345.3,408.8,351.6,408.8"/>
<path class="st0" d="M264.6,392.5l0.2,0.1l0,0.2l-0.7,3.5l0,0c0.5-0.2,1-0.3,1.4-0.4c0.4-0.1,0.7-0.1,1-0.1c0.5,0,0.9,0.1,1.2,0.2
	c0.3,0.1,0.6,0.3,0.8,0.5c0.2,0.2,0.3,0.5,0.4,0.8c0.1,0.3,0.1,0.6,0.1,1c0,0.2,0,0.5,0,0.8c0,0.3-0.1,0.6-0.1,0.8
	c-0.1,0.7-0.3,1.3-0.4,1.8c-0.2,0.5-0.4,0.9-0.7,1.3c-0.3,0.3-0.7,0.6-1.1,0.8c-0.5,0.2-1,0.3-1.7,0.3c-0.2,0-0.5,0-0.8,0
	c-0.3,0-0.6,0-0.8-0.1c-0.3,0-0.5-0.1-0.8-0.1c-0.2,0-0.4-0.1-0.6-0.2l-0.3-0.3l0-0.4l2-10.2l0.1-0.2l0.2-0.1 M267.7,398.4
	c0-0.5-0.1-0.9-0.3-1.2c-0.2-0.2-0.6-0.4-1-0.4c-0.3,0-0.7,0-1.1,0.1c-0.4,0.1-0.8,0.1-1.3,0.3l-1,5.4c0.3,0.1,0.6,0.1,1,0.1
	c0.4,0,0.7,0,1,0c0.3,0,0.6,0,0.8-0.1c0.2,0,0.5-0.1,0.7-0.3c0.2-0.2,0.4-0.4,0.5-0.7c0.2-0.3,0.3-0.7,0.4-1.2
	c0.1-0.4,0.2-0.7,0.2-1.1C267.7,399.1,267.7,398.7,267.7,398.4"/>
<path class="st0" d="M271.6,406.4l-0.1,0.2l-0.2,0.1h-0.8l-0.1-0.1l0-0.2l1.5-2.6l-1.4-7.6l0-0.2l0.2-0.1h0.8l0.2,0.1l0.1,0.2
	l0.8,4.8l0.2,1.4l0.2-0.3l0.2-0.5c0.1-0.2,0.2-0.4,0.3-0.6l2.6-4.8l0.3-0.2h0.9l0.1,0.2"/>
</svg>
