<?xml version="1.0" encoding="utf-8"?>
<!-- Generator: Adobe Illustrator 19.2.1, SVG Export Plug-In . SVG Version: 6.00 Build 0)  -->
<svg version="1.1" id="layer" xmlns="http://www.w3.org/2000/svg" xmlns:xlink="http://www.w3.org/1999/xlink" x="0px" y="0px"
	 viewBox="0 0 652 652" style="enable-background:new 0 0 652 652;" xml:space="preserve">
<style type="text/css">
	.st0{fill:#B30000;}
</style>
<polygon class="st0" points="330.6,282.1 348.3,264.4 348.3,309.1 330.6,326.8 330.6,282.1 "/>
<polygon class="st0" points="257.3,299.5 275,281.8 275,309 257.3,326.8 257.3,299.5 "/>
<polygon class="st0" points="278.8,272.4 300.9,250.6 300.9,304.9 278.8,326.8 278.8,272.4 "/>
<polygon class="st0" points="304.7,246.6 326.7,224.5 326.7,304.7 304.7,326.8 304.7,246.6 "/>
<polygon points="103.9,339.2 85.9,339.2 78,374.2 77.8,374.2 69.9,339.2 54.8,339.2 46.6,374.2 46.5,374.2 38.7,339.2 20.8,339.2 
	36.7,402.9 54.6,402.9 62.2,369.5 62.4,369.5 70.1,402.9 87.4,402.9 103.9,339.2 "/>
<path d="M105.7,402.9h17.7v-46.3h-17.7V402.9z M123.4,339.2h-17.7v12.4h17.7V339.2z"/>
<path d="M145.2,374.5c0.8-5,3.8-7.8,9.1-7.8c4.2-0.1,7.7,3.2,7.8,7.4c0,0.1,0,0.2,0,0.3H145.2z M179,383.8c0-18-7.9-28.3-26.3-28.3
	c-14.6,0-24.5,11-24.5,24.5c0,15.4,11.2,24.2,26,24.2c10.5,0,20.3-4.6,23.8-14.6h-16.5c-1.4,2.2-4.6,3.3-7.4,3.3c-5.5,0-8.6-3.7-9-9
	L179,383.8z"/>
<path d="M184.1,402.9h17.7v-24.5c0-7.4,4-8.9,7-8.9c5.2,0,5.8,3.7,5.8,9.1v24.3h17.7v-31.8c0-10.6-7.6-15.7-15.9-15.7
	c-7.1,0-11.8,2.4-15.1,7.1h-0.2v-5.9h-17.1L184.1,402.9L184.1,402.9z"/>
<path d="M253.8,374.5c0.8-5,3.8-7.8,9.1-7.8c4.2-0.1,7.7,3.2,7.8,7.4c0,0.1,0,0.2,0,0.3H253.8z M287.6,383.8
	c0-18-7.9-28.3-26.3-28.3c-14.6,0-24.5,11-24.5,24.5c0,15.4,11.2,24.2,26,24.2c10.5,0,20.3-4.6,23.8-14.6h-16.5
	c-1.4,2.2-4.6,3.3-7.4,3.3c-5.5,0-8.6-3.7-9-9L287.6,383.8z"/>
<path d="M292,402.9h17.7v-18.3c0-9.9,3.8-14,10.7-14c3.6,0,4.2,0.4,6,0.9v-15.6c-1.4-0.4-2.8-0.5-4.2-0.4c-6.4,0-10.2,3-13,8.6h-0.2
	v-7.4h-17V402.9z"/>
<path d="M363.2,379.7c0,5.5-1.4,11.5-7.8,11.5c-6.3,0-7.8-6-7.8-11.5c0-5.4,1.4-11.4,7.8-11.4C361.7,368.3,363.2,374.3,363.2,379.7z
	 M330.6,402.9h17v-5.1h0.2c2.2,2.9,4.9,6.2,13.6,6.2c13.1,0,19.4-12.9,19.4-24.5c0-10.9-4.2-24.1-19.8-24.1c-5.3,0-10,2.3-12.7,6.2
	h-0.2v-22.5h-17.6V402.9z"/>
<path d="M401.3,374.5c0.8-5,3.8-7.8,9.1-7.8c4.2-0.1,7.7,3.2,7.8,7.4c0,0.1,0,0.2,0,0.3H401.3z M435.1,383.8
	c0-18-7.9-28.3-26.3-28.3c-14.6,0-24.5,11-24.5,24.5c0,15.4,11.2,24.2,26,24.2c10.5,0,20.3-4.6,23.8-14.6h-16.5
	c-1.4,2.2-4.6,3.3-7.4,3.3c-5.5,0-8.6-3.7-9-9L435.1,383.8z"/>
<path d="M439.6,402.9h17.7v-18.3c0-9.9,3.7-14,10.7-14c3.6,0,4.2,0.4,6,0.9v-15.6c-1.4-0.4-2.8-0.5-4.2-0.4c-6.4,0-10.2,3-13,8.6
	h-0.2v-7.4h-16.9V402.9z"/>
<path d="M494.2,377.5c0-4.9,2.5-9.2,7.5-9.2c5.2,0,7.7,4,7.7,9.1s-0.7,10.7-7.2,10.7C495.8,388.1,494.2,382.7,494.2,377.5
	L494.2,377.5z M526.6,356.6h-17.7v5.6h-0.2c-2-4.7-7-6.8-12.1-6.8c-13.2,0-20.1,10.1-20.1,22.1c0,12.4,6.2,21.9,19.8,21.9
	c5,0.1,9.6-2.3,12.4-6.4h0.2v4.3c0,3.8-1.3,10.6-7,10.6c-3.6,0-5.6-1.5-6.2-5h-17.5c1.6,12.5,13.2,15.4,24.2,15.4
	c21.7,0,24.1-12.9,24.1-22.1L526.6,356.6L526.6,356.6z"/>
<path d="M548.1,374.5c0.8-5,3.8-7.8,9.1-7.8c4.2-0.1,7.7,3.2,7.8,7.4c0,0.1,0,0.2,0,0.3H548.1z M581.9,383.8
	c0-18-7.9-28.3-26.3-28.3c-14.6,0-24.5,11-24.5,24.5c0,15.4,11.2,24.2,26,24.2c10.5,0,20.3-4.6,23.8-14.6h-16.5
	c-1.4,2.2-4.6,3.3-7.4,3.3c-5.5,0-8.6-3.7-9-9L581.9,383.8z"/>
<path d="M586.4,402.9h17.7v-18.3c0-9.9,3.7-14,10.7-14c3.6,0,4.2,0.4,6,0.9v-15.6c-1.4-0.4-2.8-0.5-4.2-0.4c-6.4,0-10.2,3-13,8.6
	h-0.2v-7.4h-17V402.9z"/>
</svg>
