<?xml version="1.0" encoding="utf-8"?>
<!-- Generator: Adobe Illustrator 19.2.1, SVG Export Plug-In . SVG Version: 6.00 Build 0)  -->
<svg version="1.1" id="layer" xmlns="http://www.w3.org/2000/svg" xmlns:xlink="http://www.w3.org/1999/xlink" x="0px" y="0px"
	 viewBox="0 0 652 652" style="enable-background:new 0 0 652 652;" xml:space="preserve">
<style type="text/css">
	.st0{fill:#004D99;}
	.st1{fill:none;stroke:#004D99;stroke-width:1.7256;}
	.st2{fill:#6D84BD;}
	.st3{fill:#231815;}
</style>
<g>
	<path class="st0" d="M34.7,371.1v9.4c0,2.8,1.2,3.9,3.6,3.8c2.6-0.1,3.5-0.6,3.4-2.7l0.1-60h17.4v51.7c0,5.3,0.3,11-2.3,15.9
		c-3.7,6.8-10.2,8.4-17.7,8.4c-8.3,0-15.5-4-17.6-12.3c-0.9-3.4-0.8-6.7-0.8-10v-4.3H34.7z"/>
</g>
<g>
	<path class="st0" d="M155.5,372.6c0,10.6-1,24.2-23.6,24.2c-15.9,0-24.6-5.6-24.6-22.6v-32c0-15.9,8.6-22,24.2-22
		c17.1,0,24.1,7.1,24.1,23.1V372.6z M125.2,377.4c0,3.4,0,6.3,6.2,6.3c4.8,0,6.2-2,6.2-6.3v-37.9c0-4.8-1.7-6.1-6.5-6.1
		c-4.4,0-5.9,1.6-5.9,6V377.4z"/>
	<path class="st0" d="M220.6,321.6v55.9c0,4,1.5,6.6,5.7,6.6c4.2,0,5.3-2.6,5.3-6.6v-55.9h18V375c0,12.8-2.9,22-22.9,22
		c-18.9,0-23.8-7.8-23.8-19.8v-55.6H220.6z"/>
	<path class="st0" d="M329.4,395.8c-2.1-3.3-2.2-6.6-2.2-11v-12c0-7.2-0.6-8.6-8.4-8.6h-3.3v31.6h-16.8v-74.2h25.3
		c4.9,0,10.1,0.1,14.2,3.5c4.7,3.9,5,10.1,5,15.6c0,10.3-2.8,12.8-9.4,16.4c0.7,0.2,5,0.9,7.4,3.9c1.9,2.4,2.1,5.3,2.1,11v15.8
		c0,4.7,0.8,6.2,2.5,8.1H329.4z M315.6,351.5h5.6c5.8,0,6.1-2.4,6.1-9.4c0-6.9-1.4-7.7-6.2-7.7h-5.5V351.5z"/>
	<polygon class="st0" points="422.6,395.8 407.2,347.5 407.2,395.8 392,395.8 392,321.6 409.8,321.6 425.4,369.8 425.4,321.6 
		440.7,321.6 440.7,395.8 	"/>
	<path class="st0" d="M519.4,395.8l-2.5-16.9h-13.8l-2.6,16.9h-17.5l15-74.2h24l15,74.2H519.4z M510.1,333.4l-5,33h10L510.1,333.4z"
		/>
	<polygon class="st0" points="584.2,395.8 584.2,321.6 602.3,321.6 602.3,382.7 620.8,382.7 620.8,395.8 	"/>
</g>
<g>
	<path class="st1" d="M557.3,212.7v183.1 M462.7,212.7v183.1 M368.1,212.7v183.1 M273.6,212.7v183.1 M179,212.7v183.1 M84.4,212.7
		v183.1"/>
</g>
<g>
	<path class="st2" d="M140.9,287l-2.5-16.9h-13.8L122,287h-17.5l15-74.2h24l15,74.2H140.9z M131.6,224.5l-5,33h10L131.6,224.5z"/>
	<path class="st2" d="M229.8,235.6v-5.3c0-3.8-0.4-6.2-5-6.2c-3.6,0-4.4,2.4-4.4,5.5v2.7c0,2.7,1.1,4.4,3.4,6l15.2,10.6
		c7.5,5.1,9.6,7.8,9.6,18.3c0,9.3-1.5,20.8-23.4,20.8c-11.1,0-18.3-3-21.2-8.3c-1.9-3.6-2-8.9-2-12.1v-4.4h17.8v5.9
		c0,1.7,0,5.9,5.3,5.9c5,0,5.7-2.8,5.7-5.2c0-6-0.3-6.4-6.7-11l-10.7-7.8c-5.7-4.1-10.4-5.9-10.4-18.2c0-15.7,5.5-21.4,23.1-21.4
		c19.8,0,20.9,8.5,20.9,20.3v3.9H229.8z"/>
	<polygon class="st2" points="324.9,287 324.9,255.9 312.4,255.9 312.4,287 294.5,287 294.5,212.8 312.4,212.8 312.4,242.7 
		324.9,242.7 324.9,212.8 342.9,212.8 342.9,287 	"/>
	<path class="st2" d="M423.1,287c-2.1-3.3-2.2-6.6-2.2-11v-12c0-7.2-0.6-8.6-8.4-8.6h-3.3V287h-16.8v-74.2h25.3
		c4.9,0,10.1,0.1,14.2,3.5c4.7,3.9,5,10.1,5,15.6c0,10.3-2.8,12.8-9.4,16.4c0.7,0.2,5,0.9,7.4,3.9c1.9,2.4,2.1,5.3,2.1,11v15.8
		c0,4.7,0.8,6.2,2.5,8.1H423.1z M409.3,242.6h5.6c5.8,0,6.1-2.4,6.1-9.4s-1.4-7.7-6.2-7.7h-5.5V242.6z"/>
	<path class="st2" d="M519.1,287l-2.5-16.9h-13.8l-2.6,16.9h-17.5l15-74.2h24l15,74.2H519.1z M509.9,224.5l-5,33h10L509.9,224.5z"/>
	<polygon class="st2" points="580,287 580,212.8 618.3,212.8 618.3,225.8 598,225.8 598,242.9 617.2,242.9 617.2,256 598,256 
		598,273.8 618.3,273.8 618.3,287 	"/>
	<polygon class="st3" points="142.8,421 142.8,431.7 140.5,431.7 140.5,421 138.2,421 138.2,419.2 145.1,419.2 145.1,421 	"/>
	<polygon class="st3" points="150.5,431.7 150.5,426 148.4,426 148.4,431.7 146.1,431.7 146.1,419.2 148.4,419.2 148.4,424.1 
		150.5,424.1 150.5,419.2 152.8,419.2 152.8,431.7 	"/>
	<polygon class="st3" points="155.3,431.7 155.3,419.2 161.3,419.2 161.3,421.1 157.6,421.1 157.6,424 161.1,424 161.1,425.9 
		157.6,425.9 157.6,429.8 161.5,429.8 161.5,431.7 	"/>
	<path class="st3" d="M174.8,431.7c0,0,0.2-8.2,0.2-10.8l-2,10.8h-2.1l-2.1-10.8c0,0,0.1,7.7,0.2,10.8h-2.3v-12.5h3.8l1.5,8.7
		l1.5-8.7h3.7v12.5H174.8z"/>
	<path class="st3" d="M183.6,431.7l-0.3-2h-2.1l-0.3,2h-2.3l2.4-12.5h2.6l2.3,12.5H183.6z M182.3,422.4l-0.8,5.4h1.6L182.3,422.4z"
		/>
	<path class="st3" d="M192.1,431.7V431c-0.8,1-1.8,1-2.2,1c-2,0-2.7-1.3-2.7-2.5v-7.4c0-2.3,1.3-3.1,3.6-3.1c1.6,0,3.3,0.5,3.3,2.4
		v1.9h-2.3v-1.3c0-0.6-0.1-1.2-1.1-1.2c-0.9,0-1.2,0.5-1.2,1.6v6.7c0,0.9,0.5,1.1,1.1,1.1c1,0,1.1-0.6,1.1-1.4v-2h-1.4v-1.9h3.7v6.8
		H192.1z"/>
	<path class="st3" d="M200.5,431.7l-0.3-2h-2.1l-0.3,2h-2.3l2.4-12.5h2.6l2.3,12.5H200.5z M199.2,422.4l-0.8,5.4h1.6L199.2,422.4z"
		/>
	<polygon class="st3" points="206.3,429.8 210.3,429.8 210.3,431.7 203.8,431.7 203.8,430.3 207.8,421.2 204.3,421.2 204.3,419.2 
		210.4,419.2 210.4,420.5 	"/>
	<rect x="212" y="419.2" class="st3" width="2.3" height="12.5"/>
	<path class="st3" d="M221,431.7l-2.2-9.4c0,0,0.1,5.8,0.2,9.4h-2.2v-12.5h3l2.2,9.2c0,0-0.2-7.6-0.2-9.2h2.1v12.5H221z"/>
	<polygon class="st3" points="226.4,431.7 226.4,419.2 232.4,419.2 232.4,421.1 228.7,421.1 228.7,424 232.2,424 232.2,425.9 
		228.7,425.9 228.7,429.8 232.6,429.8 232.6,431.7 	"/>
	<path class="st3" d="M237.7,422c0-1.9,0.8-3.1,3.5-3.1c2.1,0,3.4,0.9,3.4,2.9v7.2c0,2.2-1.4,2.9-3.4,2.9c-2.1,0-3.5-0.8-3.5-2.9
		V422z M242.3,422.3c0-0.7,0-1.6-1.1-1.6c-1.2,0-1.2,0.9-1.2,1.6v6.3c0,0.7,0,1.5,1.2,1.5c1.1,0,1.1-0.9,1.1-1.5V422.3z"/>
	<polygon class="st3" points="249.2,421.1 249.2,424.3 252.8,424.3 252.8,426.1 249.2,426.1 249.2,431.7 246.9,431.7 246.9,419.2 
		253,419.2 253,421.1 	"/>
	<polygon class="st3" points="262.4,431.7 262.4,426 260.3,426 260.3,431.7 258,431.7 258,419.2 260.3,419.2 260.3,424.1 
		262.4,424.1 262.4,419.2 264.7,419.2 264.7,431.7 	"/>
	<polygon class="st3" points="270.8,431.7 268.5,431.7 266,419.2 268.5,419.2 269.7,427.5 270.8,419.2 273.2,419.2 	"/>
	<path class="st3" d="M278.5,431.7l-0.3-2h-2.1l-0.3,2h-2.3l2.4-12.5h2.6l2.3,12.5H278.5z M277.2,422.4l-0.8,5.4h1.6L277.2,422.4z"
		/>
	<path class="st3" d="M289,427v2.1c0,1.6-0.9,2.9-3.4,2.9c-0.9,0-3.4-0.2-3.4-2.6V422c0-2,1-3,3.5-3c2,0,3.3,0.8,3.3,2.5v2.3h-2.3
		v-1.6c0-1-0.2-1.5-1.2-1.5c-0.9,0-1.1,0.6-1.1,1.4v6.7c0,0.8,0.2,1.4,1.1,1.4c1,0,1.1-0.6,1.1-1.5V427H289z"/>
	<path class="st3" d="M298.2,426c-0.1,2-0.6,3-1.1,3.7c0.3,0.3,0.5,0.5,1.4,0.5v1.5c-0.1,0-0.6,0.1-1,0.1c-0.9,0-1.3-0.4-1.6-0.7
		c-0.8,0.5-1.4,0.7-2.4,0.7c-2.3,0-3.5-1.6-3.5-3.4c0-2.2,1.8-3.6,2.2-4c-0.3-0.5-0.9-1.7-0.9-2.9c0-1.5,0.9-2.6,2.6-2.6
		c1,0,2.4,0.6,2.4,2.2c0,1.5-0.9,2.5-1.8,3.6l1.6,3.2c0.2-0.6,0.4-1.1,0.4-2H298.2z M293,426.4c-0.5,0.6-0.9,1.2-0.9,2.1
		c0,0.8,0.6,1.5,1.5,1.5c0.3,0,0.7-0.1,1.2-0.4L293,426.4z M294,422.2c0.3-0.5,0.3-0.7,0.3-0.9c0-0.5-0.4-0.6-0.6-0.6
		c-0.5,0-0.7,0.5-0.7,0.9c0,0.6,0.4,1.4,0.4,1.4L294,422.2z"/>
	<path class="st3" d="M304.2,419.2c1.6,0,2.2,0.7,2.2,2.3v1.7c0,1.2-0.3,1.9-1.6,2.1c1.5,0.3,1.7,1.5,1.7,2.2v2.5
		c0,0.3,0,1.4,0.5,1.7h-2.5c-0.2-0.3-0.3-0.6-0.3-1.2v-2.9c0-0.9-0.2-1.4-1.2-1.4h-1.1v5.5h-2.3v-12.5H304.2z M301.9,424.4h1.2
		c0.8,0,1.1-0.3,1.1-1.1V422c0-0.8-0.3-1-1-1h-1.2V424.4z"/>
	<polygon class="st3" points="315.9,421 315.9,431.7 313.5,431.7 313.5,421 311.2,421 311.2,419.2 318.2,419.2 318.2,421 	"/>
	<polygon class="st3" points="319.1,431.7 319.1,419.2 325.1,419.2 325.1,421.1 321.4,421.1 321.4,424 324.9,424 324.9,425.9 
		321.4,425.9 321.4,429.8 325.3,429.8 325.3,431.7 	"/>
	<path class="st3" d="M333.8,427v2.1c0,1.6-0.9,2.9-3.4,2.9c-0.9,0-3.4-0.2-3.4-2.6V422c0-2,1-3,3.5-3c2,0,3.3,0.8,3.3,2.5v2.3h-2.3
		v-1.6c0-1-0.2-1.5-1.2-1.5c-0.9,0-1.1,0.6-1.1,1.4v6.7c0,0.8,0.2,1.4,1.1,1.4c1,0,1.1-0.6,1.1-1.5V427H333.8z"/>
	<polygon class="st3" points="340.2,431.7 340.2,426 338.1,426 338.1,431.7 335.8,431.7 335.8,419.2 338.1,419.2 338.1,424.1 
		340.2,424.1 340.2,419.2 342.6,419.2 342.6,431.7 	"/>
	<path class="st3" d="M349.2,431.7l-2.2-9.4c0,0,0.1,5.8,0.2,9.4h-2.2v-12.5h3l2.3,9.2c0,0-0.2-7.6-0.2-9.2h2.1v12.5H349.2z"/>
	<path class="st3" d="M354.4,422c0-1.9,0.8-3.1,3.5-3.1c2.1,0,3.4,0.9,3.4,2.9v7.2c0,2.2-1.4,2.9-3.4,2.9c-2.1,0-3.5-0.8-3.5-2.9
		V422z M359,422.3c0-0.7,0-1.6-1.1-1.6c-1.2,0-1.2,0.9-1.2,1.6v6.3c0,0.7,0,1.5,1.2,1.5c1.1,0,1.1-0.9,1.1-1.5V422.3z"/>
	<polygon class="st3" points="363.6,431.7 363.6,419.2 365.9,419.2 365.9,429.8 369.3,429.8 369.3,431.7 	"/>
	<path class="st3" d="M370.3,422c0-1.9,0.8-3.1,3.5-3.1c2.1,0,3.4,0.9,3.4,2.9v7.2c0,2.2-1.4,2.9-3.4,2.9c-2.1,0-3.5-0.8-3.5-2.9
		V422z M374.9,422.3c0-0.7,0-1.6-1.1-1.6c-1.2,0-1.2,0.9-1.2,1.6v6.3c0,0.7,0,1.5,1.2,1.5c1.1,0,1.1-0.9,1.1-1.5V422.3z"/>
	<path class="st3" d="M384.4,431.7V431c-0.8,1-1.8,1-2.2,1c-2,0-2.7-1.3-2.7-2.5v-7.4c0-2.3,1.3-3.1,3.6-3.1c1.6,0,3.3,0.5,3.3,2.4
		v1.9H384v-1.3c0-0.6-0.1-1.2-1.1-1.2c-0.9,0-1.2,0.5-1.2,1.6v6.7c0,0.9,0.5,1.1,1.1,1.1c1,0,1.1-0.6,1.1-1.4v-2h-1.4v-1.9h3.7v6.8
		H384.4z"/>
	<polygon class="st3" points="392,428 392,431.7 389.6,431.7 389.6,427.9 387.1,419.2 389.6,419.2 390.8,425.5 392.1,419.2 
		394.5,419.2 	"/>
	<path class="st3" d="M403.8,431.7l-0.3-2h-2.1l-0.3,2h-2.3l2.4-12.5h2.6l2.3,12.5H403.8z M402.5,422.4l-0.8,5.4h1.6L402.5,422.4z"
		/>
	<path class="st3" d="M411.7,431.7l-2.2-9.4c0,0,0.1,5.8,0.2,9.4h-2.2v-12.5h3l2.3,9.2c0,0-0.2-7.6-0.2-9.2h2.1v12.5H411.7z"/>
	<path class="st3" d="M421.2,419.2c1.8,0,2.8,1.1,2.8,3v6.3c0,2.6-1.2,3.2-3.2,3.2h-3.7v-12.5H421.2z M419.4,429.9h1
		c1,0,1.3-0.3,1.3-1.3v-6.2c0-1-0.3-1.3-1.2-1.3h-1V429.9z"/>
	<path class="st3" d="M434,431.7l-0.3-2h-2.1l-0.3,2h-2.3l2.4-12.5h2.6l2.3,12.5H434z M432.7,422.4l-0.8,5.4h1.6L432.7,422.4z"/>
	<path class="st3" d="M442.3,419.2c2.1,0,2.1,1.5,2.1,2.8v1.6c0,2.2-0.3,2.8-2.5,2.8H440v5.2h-2.3v-12.5H442.3z M440,424.7h1.2
		c0.9,0,1-0.3,1-1.1v-1.3c0-0.8-0.1-1.2-1-1.2H440V424.7z"/>
	<path class="st3" d="M450.8,419.2c2.1,0,2.1,1.5,2.1,2.8v1.6c0,2.2-0.3,2.8-2.5,2.8h-1.9v5.2h-2.3v-12.5H450.8z M448.5,424.7h1.2
		c0.9,0,1-0.3,1-1.1v-1.3c0-0.8-0.1-1.2-1-1.2h-1.2V424.7z"/>
	<polygon class="st3" points="454.7,431.7 454.7,419.2 457,419.2 457,429.8 460.3,429.8 460.3,431.7 	"/>
	<rect x="461.5" y="419.2" class="st3" width="2.3" height="12.5"/>
	<path class="st3" d="M472.9,427v2.1c0,1.6-0.9,2.9-3.4,2.9c-0.9,0-3.4-0.2-3.4-2.6V422c0-2,1-3,3.5-3c2,0,3.3,0.8,3.3,2.5v2.3h-2.3
		v-1.6c0-1-0.2-1.5-1.2-1.5c-0.9,0-1.1,0.6-1.1,1.4v6.7c0,0.8,0.2,1.4,1.1,1.4c1,0,1.1-0.6,1.1-1.5V427H472.9z"/>
	<path class="st3" d="M479,431.7l-0.3-2h-2.1l-0.3,2h-2.3l2.4-12.5h2.6l2.3,12.5H479z M477.7,422.4l-0.8,5.4h1.6L477.7,422.4z"/>
	<polygon class="st3" points="485.4,421 485.4,431.7 483.1,431.7 483.1,421 480.8,421 480.8,419.2 487.7,419.2 487.7,421 	"/>
	<rect x="488.6" y="419.2" class="st3" width="2.3" height="12.5"/>
	<path class="st3" d="M493.2,422c0-1.9,0.8-3.1,3.5-3.1c2.1,0,3.4,0.9,3.4,2.9v7.2c0,2.2-1.4,2.9-3.4,2.9c-2.1,0-3.5-0.8-3.5-2.9
		V422z M497.8,422.3c0-0.7,0-1.6-1.1-1.6c-1.2,0-1.2,0.9-1.2,1.6v6.3c0,0.7,0,1.5,1.2,1.5c1.1,0,1.1-0.9,1.1-1.5V422.3z"/>
	<path class="st3" d="M506.6,431.7l-2.2-9.4c0,0,0.1,5.8,0.2,9.4h-2.2v-12.5h3l2.3,9.2c0,0-0.2-7.6-0.2-9.2h2.1v12.5H506.6z"/>
	<path class="st3" d="M514,427.3v1.7c0,0.5,0.1,1.2,1.1,1.2c1,0,1.1-0.5,1.1-1.5v-0.4c0-0.9-0.3-1.2-0.8-1.6l-2.2-1.4
		c-0.7-0.5-1.5-1.1-1.5-2.9V422c0-2.2,1.3-3.1,3.4-3.1c1.6,0,3.2,0.7,3.2,2.7v1.2h-2.3v-1.1c0-0.5-0.1-1.1-1-1.1c-0.7,0-1,0.3-1,1.3
		c0,0.6,0,1,0.7,1.5l2.2,1.5c0.9,0.6,1.5,1.5,1.5,2.6v1.2c0,1.7-0.6,3.1-3.4,3.1c-1.6,0-3.5-0.5-3.5-2.8v-1.8H514z"/>
	<path class="st3" d="M544.6,431.7l-0.3-2h-2.1l-0.3,2h-2.3l2.4-12.5h2.6l2.3,12.5H544.6z M543.3,422.4l-0.8,5.4h1.6L543.3,422.4z"
		/>
	<path class="st3" d="M550.4,427.3v1.7c0,0.5,0.1,1.2,1.1,1.2c1,0,1.1-0.5,1.1-1.5v-0.4c0-0.9-0.3-1.2-0.8-1.6l-2.2-1.4
		c-0.7-0.5-1.5-1.1-1.5-2.9V422c0-2.2,1.3-3.1,3.4-3.1c1.6,0,3.2,0.7,3.2,2.7v1.2h-2.3v-1.1c0-0.5-0.1-1.1-1-1.1c-0.7,0-1,0.3-1,1.3
		c0,0.6,0,1,0.7,1.5l2.2,1.5c0.9,0.6,1.5,1.5,1.5,2.6v1.2c0,1.7-0.6,3.1-3.4,3.1c-1.6,0-3.5-0.5-3.5-2.8v-1.8H550.4z"/>
	<polygon class="st3" points="561.5,431.7 561.5,426 559.4,426 559.4,431.7 557.1,431.7 557.1,419.2 559.4,419.2 559.4,424.1 
		561.5,424.1 561.5,419.2 563.8,419.2 563.8,431.7 	"/>
	<path class="st3" d="M570.9,419.2c1.6,0,2.2,0.7,2.2,2.3v1.7c0,1.2-0.3,1.9-1.6,2.1c1.5,0.3,1.7,1.5,1.7,2.2v2.5
		c0,0.3,0,1.4,0.5,1.7h-2.5c-0.2-0.3-0.3-0.6-0.3-1.2v-2.9c0-0.9-0.2-1.4-1.2-1.4h-1.1v5.5h-2.3v-12.5H570.9z M568.6,424.4h1.2
		c0.8,0,1.1-0.3,1.1-1.1V422c0-0.8-0.3-1-1-1h-1.2V424.4z"/>
	<path class="st3" d="M579.7,431.7l-0.3-2h-2.1l-0.3,2h-2.3l2.4-12.5h2.6l2.3,12.5H579.7z M578.3,422.4l-0.8,5.4h1.6L578.3,422.4z"
		/>
	<polygon class="st3" points="583.4,431.7 583.4,419.2 589.4,419.2 589.4,421.1 585.7,421.1 585.7,424 589.2,424 589.2,425.9 
		585.7,425.9 585.7,429.8 589.6,429.8 589.6,431.7 	"/>
	<rect x="590.5" y="429.4" class="st3" width="2.1" height="2.3"/>
	<path class="st3" d="M594,422c0-1.9,0.8-3.1,3.5-3.1c2.1,0,3.4,0.9,3.4,2.9v7.2c0,2.2-1.4,2.9-3.4,2.9c-2.1,0-3.5-0.8-3.5-2.9V422z
		 M598.6,422.3c0-0.7,0-1.6-1.1-1.6c-1.2,0-1.2,0.9-1.2,1.6v6.3c0,0.7,0,1.5,1.2,1.5c1.1,0,1.1-0.9,1.1-1.5V422.3z"/>
	<path class="st3" d="M607.8,419.2c1.6,0,2.3,0.7,2.3,2.3v1.7c0,1.2-0.3,1.9-1.6,2.1c1.5,0.3,1.7,1.5,1.7,2.2v2.5
		c0,0.3,0,1.4,0.5,1.7h-2.5c-0.2-0.3-0.3-0.6-0.3-1.2v-2.9c0-0.9-0.2-1.4-1.1-1.4h-1.1v5.5h-2.3v-12.5H607.8z M605.5,424.4h1.2
		c0.8,0,1.1-0.3,1.1-1.1V422c0-0.8-0.3-1-1-1h-1.2V424.4z"/>
	<path class="st3" d="M617.1,431.7V431c-0.8,1-1.8,1-2.2,1c-2,0-2.7-1.3-2.7-2.5v-7.4c0-2.3,1.3-3.1,3.6-3.1c1.6,0,3.3,0.5,3.3,2.4
		v1.9h-2.3v-1.3c0-0.6-0.1-1.2-1.1-1.2c-0.9,0-1.2,0.5-1.2,1.6v6.7c0,0.9,0.5,1.1,1.1,1.1c1,0,1.1-0.6,1.1-1.4v-2h-1.4v-1.9h3.7v6.8
		H617.1z"/>
</g>
</svg>
