<?xml version="1.0" encoding="utf-8"?>
<!-- Generator: Adobe Illustrator 19.2.1, SVG Export Plug-In . SVG Version: 6.00 Build 0)  -->
<svg version="1.1" id="layer" xmlns="http://www.w3.org/2000/svg" xmlns:xlink="http://www.w3.org/1999/xlink" x="0px" y="0px"
	 viewBox="0 0 652 652" style="enable-background:new 0 0 652 652;" xml:space="preserve">
<style type="text/css">
	.st0{fill:#00AEEF;}
</style>
<g>
	<polygon class="st0" points="540,258 540,292.5 490.3,292.5 490.3,295.4 540,295.4 540,329.6 544.2,329.6 544.2,258 	"/>
	<g>
		<polygon class="st0" points="566.5,271.5 566.5,316.1 570.9,316.1 570.9,295.4 620.3,295.4 620.3,292.5 570.9,292.5 570.9,271.5 
					"/>
		<rect x="576.5" y="272.7" class="st0" width="11.3" height="2.9"/>
	</g>
	<polygon class="st0" points="534.2,278.4 528.5,278.4 528.5,272.7 525.7,272.7 525.7,278.4 520.1,278.4 520.1,281.1 525.7,281.1 
		525.7,286.8 528.5,286.8 528.5,281.1 534.2,281.1 	"/>
</g>
<g>
	<polygon points="76.1,381.6 76.1,365 42.2,365 42.2,354.5 69.7,354.5 69.7,338.8 42.2,338.8 42.2,329.7 74.7,329.7 74.7,313.4 
		20.3,313.4 20.3,381.6 	"/>
	<path d="M84.3,357.1c0,8.6,2.8,15,8.3,19.6c5.6,4.6,13.6,6.8,24.1,6.8c10.4,0,18.4-2.2,24-6.8c5.6-4.4,8.2-11,8.2-19.6v-43.8h-21.9
		v42c0,4-0.8,6.8-2.3,8.3c-1.6,1.7-4.2,2.4-7.9,2.4c-3.8,0-6.6-0.8-8.1-2.4c-1.7-1.7-2.4-4.4-2.4-8.3v-42h-22V357.1z"/>
	<path d="M181.4,381.6V358h9.3c3.4,0,5.8,0.7,7.2,2.1c1.3,1.4,2.1,3.9,2.1,7.4v6.8c0,0.7,0.1,1.7,0.3,2.9s0.4,2.7,0.9,4.3h22V379
		c-1.2-0.1-1.9-1.6-1.9-4.2c0-0.1,0-0.2,0-0.2l-0.3-9.4c-0.1-4.6-1-8-2.8-10.3c-1.7-2.3-4.4-4-8.3-4.8c3.8-1.6,6.6-3.8,8.3-6.6
		c1.8-2.8,2.7-6.2,2.7-10.3c0-7-2.2-12-6.6-15c-4.3-3-11.7-4.6-21.9-4.6h-32.7v68.2h21.6V381.6z M181.4,329.9h9.4
		c3.9,0,6.4,0.4,7.8,1.4s2,2.7,2,5s-0.7,4-2,4.9s-3.8,1.4-7.2,1.4h-10V329.9z"/>
	<path d="M236.9,373.8c6.3,6.4,15,9.7,26,9.7c10.9,0,19.6-3.2,25.9-9.7c6.3-6.4,9.4-15.2,9.4-26.2c0-11.1-3.1-19.9-9.4-26.3
		c-6.3-6.4-15-9.7-25.9-9.7c-11,0-19.6,3.2-26,9.7c-6.3,6.4-9.6,15.2-9.6,26.3C227.4,358.6,230.5,367.4,236.9,373.8 M252.7,333.3
		c2.1-3,5.6-4.6,10.1-4.6s7.9,1.6,10,4.6s3.2,7.8,3.2,14.3c0,6.4-1.1,11.2-3.2,14.2c-2.1,3-5.4,4.6-10,4.6s-8-1.6-10.1-4.6
		c-2.1-3-3.2-7.8-3.2-14.2C249.4,341,250.5,336.4,252.7,333.3"/>
	<path d="M316.4,349.6h17.8c5.3,0,9.2,0.9,11.8,2.8c2.4,1.9,3.8,4.8,3.8,8.7c0,4-1.2,7-3.7,9.1c-2.4,2.1-6,3.1-10.8,3.1h-18.8v-23.7
		H316.4z M316.4,321.1h17c4.4,0,7.8,0.8,10,2.4c2.1,1.7,3.2,4.2,3.2,7.7c0,3.7-1.1,6.3-3.3,8.1c-2.2,1.8-5.8,2.6-10.6,2.6h-16.2
		v-20.8H316.4z M336.1,381.6c7.1,0,12.7-1.9,16.9-5.6c4.1-3.7,6.2-8.7,6.2-14.9c0-4.4-1.1-8.1-3.4-11c-2.3-2.9-5.4-4.7-9.6-5.4
		c3.2-1.3,5.7-3.2,7.3-5.7c1.7-2.4,2.4-5.6,2.4-9c0-5.6-1.8-9.7-5.3-12.4c-3.6-2.8-8.8-4.2-15.9-4.2h-27.6v68.2H336.1z"/>
	<path d="M370.1,381.6l7.2-20.3h26.9l7.2,20.3h10L396,313.4h-10.2l-25.3,68.2H370.1z M390.9,323.1l10.6,30.1h-21.2L390.9,323.1z"/>
	<polygon points="451,381.6 451,321.7 472.4,321.7 472.4,313.4 420.1,313.4 420.1,321.7 441.6,321.7 441.6,381.6 	"/>
</g>
</svg>
